<?xml version="1.0" standalone="no"?>
<!DOCTYPE svg PUBLIC "-//W3C//DTD SVG 1.1//EN" "http://www.w3.org/Graphics/SVG/1.1/DTD/svg11.dtd">
<svg xmlns="http://www.w3.org/2000/svg" width="64" height="64" viewBox="0 0 704 810" fill="none">
<path d="M353.25 2.83494C352.477 2.38835 351.523 2.38835 350.75 2.83494L4.33984 202.835C3.56634 203.282 3.08984 204.107 3.08984 205V605C3.08984 605.893 3.56634 606.719 4.33984 607.165L350.75 807.165C351.523 807.612 352.477 807.612 353.25 807.165L699.66 607.165C700.434 606.719 700.91 605.893 700.91 605V205C700.91 204.107 700.434 203.282 699.66 202.835L353.25 2.83494Z" fill="#131114" stroke="#F6F6F6" stroke-width="5" stroke-linejoin="round"/>
<path d="M352.625 28.9175C352.238 28.6942 351.762 28.6942 351.375 28.9175L26.6155 216.417C26.2287 216.641 25.9905 217.053 25.9905 217.5V592.5C25.9905 592.947 26.2287 593.359 26.6155 593.583L351.375 781.083C351.762 781.306 352.238 781.306 352.625 781.083L677.385 593.583C677.771 593.359 678.01 592.947 678.01 592.5V217.5C678.01 217.053 677.771 216.641 677.385 216.417L352.625 28.9175Z" fill="#131114" stroke="#F6F6F6" stroke-width="2.5" stroke-linejoin="round"/>
<path d="M488.764 541.764C458.561 571.968 419.481 591.708 377.247 598.094C335.013 604.481 291.844 597.179 254.06 577.256C216.277 557.334 185.864 525.838 167.275 487.381C148.687 448.924 142.898 405.526 150.758 363.541C158.618 321.556 179.713 283.191 210.954 254.062C242.195 224.933 281.942 206.572 324.373 201.666C366.805 196.76 409.692 205.568 446.756 226.8C483.819 248.031 513.112 280.572 530.344 319.655L347.343 400.343L488.764 541.764Z" fill="#F6F6F6"/>
<circle cx="377" cy="405" r="175" fill="#131114"/>
</svg>